<svg width="1099" height="859" viewBox="0 0 1099 859" fill="none" xmlns="http://www.w3.org/2000/svg">
<path d="M824.443 526.788C847.227 564.724 814.483 599.089 791.097 623.725C717.598 701.144 612.293 737.956 511.659 773.579C429.242 802.73 341.632 833.265 256.262 814.438C231.247 808.919 204.193 796.14 197 771.556C190.142 748.147 204.283 723.638 221.398 706.261C249.664 677.557 286.321 659.667 322.382 642.842C337.08 635.969 425.27 603.307 413.666 580.456C410.795 574.788 403.252 573.657 396.922 573.851C350.804 575.257 312.169 607.673 268.759 623.271C260.405 626.247 250.445 628.478 243.185 623.361C235.487 617.953 234.542 606.87 236.119 597.594C238.992 580.974 247.376 565.806 259.922 554.533C269.807 545.749 281.991 539.582 290.635 529.6C291.974 528.06 293.29 526.141 292.866 524.147C292.123 520.748 287.436 520.384 284.03 521.061C249.337 528.023 225.266 560.372 192.084 572.713C187.569 574.386 181.722 575.368 178.598 571.708C174.99 567.491 178.129 561.02 181.715 556.78C201.002 533.959 227.423 518.591 255.102 508.125C277.008 499.846 318.678 482.649 341.96 491.664C347.412 493.769 352.128 498.79 352.165 504.637C352.202 510.483 347.747 515.437 343.566 519.647L316.238 547.169C313.709 549.713 311.031 552.629 310.949 556.214C310.83 562.485 318.774 565.884 324.97 564.88C363.65 558.669 400.611 539.515 438.927 530.76C481.603 521.003 524.892 514.154 568.496 510.26C647.194 503.246 756.263 474.935 820.657 522.965C824.376 525.747 820.657 522.965 824.451 526.766" fill="#DFACFF"/>
<path d="M549.178 124.327C573.293 124.327 592.842 104.778 592.842 80.6633C592.842 56.5487 573.293 37 549.178 37C525.064 37 505.515 56.5487 505.515 80.6633C505.515 104.778 525.064 124.327 549.178 124.327Z" fill="#FCFD7F"/>
<path d="M530.597 196.791C530.872 195.475 531.177 194.218 531.512 193.072C533.074 187.62 540.58 173.212 547.282 181.334V191.153L538.854 222.744C538.854 222.744 531.118 215.767 530.634 214.279C528.991 209.206 529.407 202.452 530.597 196.791Z" fill="#3F0E40"/>
<path d="M528.894 406.502C528.708 406.762 525.688 412.81 525.509 413.077C522.073 418.195 522.772 418.403 520.675 424.317C513.935 443.315 507.144 462.491 504.861 482.678C500.606 519.87 511.86 557.062 512.529 594.574C512.202 579.087 523.419 564.783 521.88 544.387C521.061 533.855 525.688 523.649 527.615 513.235L531.542 487.551L543.972 453.297L548.524 437.609C551.246 435.065 553.954 432.187 556.944 430.297C555.821 446.364 548.963 462.282 548.494 478.706C548.375 482.909 548.256 487.171 549.119 491.277C549.982 495.383 553.746 498.812 553.493 502.956C550.793 546.53 573.294 565.713 572.26 597.423C578.27 571.389 583.507 562.76 580.286 540.237C578.887 530.403 581.773 475.024 583.105 465.161C584.258 456.562 589.874 448.149 591.287 439.595C593.667 425.135 590.833 408.927 589.309 394.333C588.751 388.977 591.012 383.25 587.226 379.776C586.327 378.878 585.179 378.272 583.931 378.035C582.986 377.967 582.038 378.062 581.126 378.318C561.482 382.58 541.866 388.218 528.894 406.502Z" fill="#3F0E40"/>
<path d="M487.216 461.166C488.63 475.054 495.778 485.044 505.47 492.675C515.162 500.307 527.384 505.559 538.943 509.977C552.154 515.028 564.635 521.484 576.998 528.209C589.36 534.933 601.589 541.932 614.279 548.039C629.438 555.329 640.44 560.342 651.761 564.463C663.082 568.584 674.701 571.805 691.11 575.509C709.453 579.645 714.281 569.67 712.748 556.958C711.216 544.246 703.302 528.789 696.168 521.998C688.823 515.082 681.912 507.719 675.475 499.95C669.992 493.345 664.689 486.487 655.897 476.326C639.532 457.388 622.424 435.727 607.607 412.735C592.789 389.743 580.308 365.434 573.093 341.193C570.99 334.303 569.563 327.226 568.83 320.06C568.075 312.952 568.454 305.768 569.954 298.779C573.554 282.779 583.67 269.479 593.756 256.172C603.843 242.865 613.937 229.557 617.455 213.535C617.844 211.923 618.039 210.27 618.035 208.611C618.047 206.991 617.614 205.399 616.786 204.006C615.417 201.834 614.182 200.897 613.29 199.082C612.397 197.267 611.847 194.567 611.847 188.869C611.847 183.172 612.799 176.529 612.323 171.307C611.847 166.086 609.95 162.292 604.252 162.292C603.099 163.78 602.445 167.848 602.415 171.88C602.385 175.912 602.958 179.899 604.252 181.275C605.546 182.651 604.765 187.821 604.051 192.908C603.337 197.996 602.683 203.002 604.252 204.066C609.563 207.622 605.479 213.059 599.648 219.144C593.816 225.228 586.259 231.967 584.518 238.126C583.884 240.509 582.765 242.735 581.23 244.665C580.513 245.6 579.618 246.383 578.597 246.97C577.576 247.558 576.448 247.937 575.279 248.086C574.138 248.176 572.989 248.063 571.888 247.752C570.774 247.434 569.685 247.036 568.63 246.561C557.388 241.686 547.451 234.236 539.62 224.812L537.314 231.945L535.008 239.086C529.734 239.577 521.924 233.953 513.109 230.643C505.842 227.913 497.898 227.668 490.445 225.436C482.41 222.999 474.747 219.472 467.668 214.956C465.169 213.364 462.7 211.594 460.974 209.169C458.467 205.621 458.489 201.73 457.76 197.669C456.843 193.139 454.991 188.85 452.323 185.076C450.382 188.951 447.205 192.336 446.856 196.836C446.618 199.886 447.748 202.876 449.154 205.591C455.849 218.556 470.242 231.365 483.415 237.524C490.497 240.834 498.106 243.698 505.798 245.178C508.148 245.632 510.566 245.922 512.723 246.971C517.528 249.284 518.019 253.747 519.938 258.128C520.786 260.047 521.016 265.909 521.091 268.014C521.165 270.119 521.091 272.276 521.307 274.359C521.753 278.487 523.367 282.318 525.063 286.149C526.759 289.979 528.514 293.78 529.236 297.871C530.5 304.975 528.581 311.759 525.338 318.253C522.095 324.746 517.52 330.957 513.437 336.93C501.05 355.283 492.608 376.007 488.645 397.791C484.65 419.162 484.591 441.365 487.514 463.673" fill="#FCFD7F"/>
<path d="M658.247 273.317C652.059 289.072 635.612 279.439 619.278 281.262C606.015 282.749 592.626 279.893 579.899 275.869C564.276 270.997 549.343 264.137 535.469 255.458C532.494 253.598 529.467 251.449 528.202 248.205C526.64 244.189 528.202 239.703 529.831 235.694L544.157 199.61C545.474 196.293 546.813 192.916 547.021 189.338C547.229 185.76 546.128 181.944 543.339 179.713C547.058 177.303 551.759 174.937 555.791 176.834C559.205 178.448 560.656 182.495 561.414 186.199C562.556 191.826 562.874 197.589 562.359 203.307C562.24 204.654 562.114 206.164 562.962 207.22C563.705 208.142 564.97 208.425 566.145 208.611C579.095 210.627 587.545 205.264 599.521 203.121C603.769 202.377 608.447 202.854 611.891 205.397C619.441 210.917 619.694 224.261 628.605 227.088C633.983 228.791 639.815 225.965 644.739 229.319C649.388 232.488 650.69 240.187 653.821 244.605C655.837 247.439 660.36 269.457 658.285 273.332" fill="#EC7793"/>
<path d="M583.283 266.817C582.687 266.622 582.145 266.291 581.699 265.85Z" fill="#EC7793"/>
</svg>
