<svg xmlns="http://www.w3.org/2000/svg" viewBox="0 0 1920 1080"><defs><style>.cls-1{fill:#dfacff;}.cls-2{fill:#fcfd7f;}.cls-3{fill:#3f0e40;}.cls-4{fill:#ec7793;}</style></defs><title>Artboard 1</title><g id="Layer_2" data-name="Layer 2"><path class="cls-1" d="M1308.64,672.22c30.63,51-13.39,97.2-44.83,130.32C1165,906.62,1023.43,956.11,888.14,1004c-110.8,39.19-228.58,80.24-343.35,54.93-33.63-7.42-70-24.6-79.67-57.65-9.22-31.47,9.79-64.42,32.8-87.78,38-38.59,87.28-62.64,135.76-85.26C653.44,819,772,775.09,756.4,744.37c-3.86-7.62-14-9.14-22.51-8.88-62,1.89-113.94,45.47-172.3,66.44-11.23,4-24.62,7-34.38.12-10.35-7.27-11.62-22.17-9.5-34.64a100.94,100.94,0,0,1,32-57.89C563,697.71,579.38,689.42,591,676c1.8-2.07,3.57-4.65,3-7.33-1-4.57-7.3-5.06-11.88-4.15-46.64,9.36-79,52.85-123.61,69.44-6.07,2.25-13.93,3.57-18.13-1.35-4.85-5.67-.63-14.37,4.19-20.07,25.93-30.68,61.45-51.34,98.66-65.41C572.68,636,628.7,612.88,660,625c7.33,2.83,13.67,9.58,13.72,17.44s-5.94,14.52-11.56,20.18l-36.74,37c-3.4,3.42-7,7.34-7.11,12.16-.16,8.43,10.52,13,18.85,11.65,52-8.35,101.69-34.1,153.2-45.87A1300.57,1300.57,0,0,1,964.55,650c105.8-9.43,252.43-47.49,339,17.08,5,3.74,0,0,5.1,5.11"/><circle class="cls-2" cx="938.58" cy="72.46" r="58.7"/><path class="cls-3" d="M913.6,228.58c.37-1.77.78-3.46,1.23-5,2.1-7.33,12.19-26.7,21.2-15.78V221L924.7,263.47s-10.4-9.38-11.05-11.38C911.44,245.27,912,236.19,913.6,228.58Z"/><path class="cls-3" d="M911.31,510.51c-.25.35-4.31,8.48-4.55,8.84-4.62,6.88-3.68,7.16-6.5,15.11C891.2,560,882.07,585.78,879,612.92c-5.72,50,9.41,100,10.31,150.43-.44-20.82,14.64-40.05,12.57-67.47C900.78,681.72,907,668,909.59,654l5.28-34.53,16.71-46.05,6.12-21.09c3.66-3.42,7.3-7.29,11.32-9.83-1.51,21.6-10.73,43-11.36,65.08-.16,5.65-.32,11.38.84,16.9s6.22,10.13,5.88,15.7c-3.63,58.58,26.62,84.37,25.23,127,8.08-35,15.12-46.6,10.79-76.88-1.88-13.22,2-87.67,3.79-100.93,1.55-11.56,9.1-22.87,11-34.37,3.2-19.44-.61-41.23-2.66-60.85-.75-7.2,2.29-14.9-2.8-19.57a8.52,8.52,0,0,0-4.43-2.34,11,11,0,0,0-3.77.38C955.12,478.35,928.75,485.93,911.31,510.51Z"/><path class="cls-2" d="M855.28,584c1.9,18.67,11.51,32.1,24.54,42.36s29.46,17.32,45,23.26c17.76,6.79,34.54,15.47,51.16,24.51s33.06,18.45,50.12,26.66c20.38,9.8,35.17,16.54,50.39,22.08s30.84,9.87,52.9,14.85c24.66,5.56,31.15-7.85,29.09-24.94s-12.7-37.87-22.29-47a329.13,329.13,0,0,1-27.82-29.64c-7.37-8.88-14.5-18.1-26.32-31.76-22-25.46-45-54.58-64.92-85.49s-36.7-63.59-46.4-96.18A149.31,149.31,0,0,1,965,394.3a90.68,90.68,0,0,1,1.51-28.61c4.84-21.51,18.44-39.39,32-57.28s27.13-35.78,31.86-57.32a27.93,27.93,0,0,0,.78-6.62,11.94,11.94,0,0,0-1.68-6.19c-1.84-2.92-3.5-4.18-4.7-6.62s-1.94-6.07-1.94-13.73,1.28-16.59.64-23.61-3.19-12.12-10.85-12.12c-1.55,2-2.43,7.47-2.47,12.89s.73,10.78,2.47,12.63.69,8.8-.27,15.64-1.84,13.57.27,15c7.14,4.78,1.65,12.09-6.19,20.27s-18,17.24-20.34,25.52a24.07,24.07,0,0,1-4.42,8.79,12,12,0,0,1-8,4.6,13,13,0,0,1-4.56-.45,32.3,32.3,0,0,1-4.38-1.6,105.06,105.06,0,0,1-39-29.24l-3.1,9.59-3.1,9.6c-7.09.66-17.59-6.9-29.44-11.35-9.77-3.67-20.45-4-30.47-7A123.69,123.69,0,0,1,829,253c-3.36-2.14-6.68-4.52-9-7.78-3.37-4.77-3.34-10-4.32-15.46a44.71,44.71,0,0,0-7.31-16.93c-2.61,5.21-6.88,9.76-7.35,15.81-.32,4.1,1.2,8.12,3.09,11.77,9,17.43,28.35,34.65,46.06,42.93,9.52,4.45,19.75,8.3,30.09,10.29,3.16.61,6.41,1,9.31,2.41,6.46,3.11,7.12,9.11,9.7,15,1.14,2.58,1.45,10.46,1.55,13.29s0,5.73.29,8.53c.6,5.55,2.77,10.7,5.05,15.85s4.64,10.26,5.61,15.76c1.7,9.55-.88,18.67-5.24,27.4s-10.51,17.08-16,25.11a215.06,215.06,0,0,0-33.33,81.82c-5.37,28.73-5.45,58.58-1.52,88.57"/><path class="cls-4" d="M1085.21,331.46c-8.32,21.18-30.43,8.23-52.39,10.68-17.83,2-35.83-1.84-52.94-7.25a256.74,256.74,0,0,1-59.73-27.44c-4-2.5-8.07-5.39-9.77-9.75-2.1-5.4,0-11.43,2.19-16.82l19.26-48.51c1.77-4.46,3.57-9,3.85-13.81s-1.2-9.94-4.95-12.94c5-3.24,11.32-6.42,16.74-3.87,4.59,2.17,6.54,7.61,7.56,12.59a79.7,79.7,0,0,1,1.27,23c-.16,1.81-.33,3.84.81,5.26,1,1.24,2.7,1.62,4.28,1.87,17.41,2.71,28.77-4.5,44.87-7.38,5.71-1,12-.36,16.63,3.06,10.15,7.42,10.49,25.36,22.47,29.16,7.23,2.29,15.07-1.51,21.69,3,6.25,4.26,8,14.61,12.21,20.55,2.71,3.81,8.79,33.41,6,38.62"/><path class="cls-4" d="M984.43,322.72a5.41,5.41,0,0,1-2.13-1.3"/></g></svg>