<svg width="1136" height="1142" viewBox="0 0 1136 1142" fill="none" xmlns="http://www.w3.org/2000/svg">
<path d="M980.64 700.22C1011.27 751.22 967.25 797.42 935.81 830.54C837 934.62 695.43 984.11 560.14 1032C449.34 1071.19 331.56 1112.24 216.79 1086.93C183.16 1079.51 146.79 1062.33 137.12 1029.28C127.9 997.81 146.91 964.86 169.92 941.5C207.92 902.91 257.2 878.86 305.68 856.24C325.44 847 444 803.09 428.4 772.37C424.54 764.75 414.4 763.23 405.89 763.49C343.89 765.38 291.95 808.96 233.59 829.93C222.36 833.93 208.97 836.93 199.21 830.05C188.86 822.78 187.59 807.88 189.71 795.41C193.572 773.067 204.844 752.675 221.71 737.52C235 725.71 251.38 717.42 263 704C264.8 701.93 266.57 699.35 266 696.67C265 692.1 258.7 691.61 254.12 692.52C207.48 701.88 175.12 745.37 130.51 761.96C124.44 764.21 116.58 765.53 112.38 760.61C107.53 754.94 111.75 746.24 116.57 740.54C142.5 709.86 178.02 689.2 215.23 675.13C244.68 664 300.7 640.88 332 653C339.33 655.83 345.67 662.58 345.72 670.44C345.77 678.3 339.78 684.96 334.16 690.62L297.42 727.62C294.02 731.04 290.42 734.96 290.31 739.78C290.15 748.21 300.83 752.78 309.16 751.43C361.16 743.08 410.85 717.33 462.36 705.56C519.733 692.443 577.93 683.235 636.55 678C742.35 668.57 888.98 630.51 975.55 695.08C980.55 698.82 975.55 695.08 980.65 700.19" fill="#DFACFF"/>
<path d="M610.58 159.16C642.999 159.16 669.28 132.879 669.28 100.46C669.28 68.0406 642.999 41.7598 610.58 41.7598C578.161 41.7598 551.88 68.0406 551.88 100.46C551.88 132.879 578.161 159.16 610.58 159.16Z" fill="#FCFD7F"/>
<path d="M585.6 256.58C585.97 254.81 586.38 253.12 586.83 251.58C588.93 244.25 599.02 224.88 608.03 235.8V249L596.7 291.47C596.7 291.47 586.3 282.09 585.65 280.09C583.44 273.27 584 264.19 585.6 256.58Z" fill="#3F0E40"/>
<path d="M583.31 538.51C583.06 538.86 579 546.99 578.76 547.35C574.14 554.23 575.08 554.51 572.26 562.46C563.2 588 554.07 613.78 551 640.92C545.28 690.92 560.41 740.92 561.31 791.35C560.87 770.53 575.95 751.3 573.88 723.88C572.78 709.72 579 696 581.59 682L586.87 647.47L603.58 601.42L609.7 580.33C613.36 576.91 617 573.04 621.02 570.5C619.51 592.1 610.29 613.5 609.66 635.58C609.5 641.23 609.34 646.96 610.5 652.48C611.66 658 616.72 662.61 616.38 668.18C612.75 726.76 643 752.55 641.61 795.18C649.69 760.18 656.73 748.58 652.4 718.3C650.52 705.08 654.4 630.63 656.19 617.37C657.74 605.81 665.29 594.5 667.19 583C670.39 563.56 666.58 541.77 664.53 522.15C663.78 514.95 666.82 507.25 661.73 502.58C660.521 501.374 658.978 500.558 657.3 500.24C656.031 500.148 654.755 500.276 653.53 500.62C627.12 506.35 600.75 513.93 583.31 538.51Z" fill="#3F0E40"/>
<path d="M527.28 612C529.18 630.67 538.79 644.1 551.82 654.36C564.85 664.62 581.28 671.68 596.82 677.62C614.58 684.41 631.36 693.09 647.98 702.13C664.6 711.17 681.04 720.58 698.1 728.79C718.48 738.59 733.27 745.33 748.49 750.87C763.71 756.41 779.33 760.74 801.39 765.72C826.05 771.28 832.54 757.87 830.48 740.78C828.42 723.69 817.78 702.91 808.19 693.78C798.315 684.482 789.024 674.583 780.37 664.14C773 655.26 765.87 646.04 754.05 632.38C732.05 606.92 709.05 577.8 689.13 546.89C669.21 515.98 652.43 483.3 642.73 450.71C639.903 441.448 637.984 431.933 637 422.3C635.984 412.743 636.494 403.086 638.51 393.69C643.35 372.18 656.95 354.3 670.51 336.41C684.07 318.52 697.64 300.63 702.37 279.09C702.893 276.922 703.155 274.7 703.15 272.47C703.165 270.292 702.584 268.151 701.47 266.28C699.63 263.36 697.97 262.1 696.77 259.66C695.57 257.22 694.83 253.59 694.83 245.93C694.83 238.27 696.11 229.34 695.47 222.32C694.83 215.3 692.28 210.2 684.62 210.2C683.07 212.2 682.19 217.67 682.15 223.09C682.11 228.51 682.88 233.87 684.62 235.72C686.36 237.57 685.31 244.52 684.35 251.36C683.39 258.2 682.51 264.93 684.62 266.36C691.76 271.14 686.27 278.45 678.43 286.63C670.59 294.81 660.43 303.87 658.09 312.15C657.238 315.353 655.733 318.345 653.67 320.94C652.706 322.196 651.503 323.25 650.13 324.039C648.757 324.829 647.241 325.339 645.67 325.54C644.135 325.661 642.591 325.509 641.11 325.09C639.613 324.663 638.15 324.128 636.73 323.49C621.617 316.935 608.258 306.919 597.73 294.25L594.63 303.84L591.53 313.44C584.44 314.1 573.94 306.54 562.09 302.09C552.32 298.42 541.64 298.09 531.62 295.09C520.818 291.812 510.516 287.072 501 281C497.64 278.86 494.32 276.48 492 273.22C488.63 268.45 488.66 263.22 487.68 257.76C486.446 251.67 483.957 245.904 480.37 240.83C477.76 246.04 473.49 250.59 473.02 256.64C472.7 260.74 474.22 264.76 476.11 268.41C485.11 285.84 504.46 303.06 522.17 311.34C531.69 315.79 541.92 319.64 552.26 321.63C555.42 322.24 558.67 322.63 561.57 324.04C568.03 327.15 568.69 333.15 571.27 339.04C572.41 341.62 572.72 349.5 572.82 352.33C572.92 355.16 572.82 358.06 573.11 360.86C573.71 366.41 575.88 371.56 578.16 376.71C580.44 381.86 582.8 386.97 583.77 392.47C585.47 402.02 582.89 411.14 578.53 419.87C574.17 428.6 568.02 436.95 562.53 444.98C545.877 469.653 534.528 497.514 529.2 526.8C523.83 555.53 523.75 585.38 527.68 615.37" fill="#FCFD7F"/>
<path d="M757.21 359.46C748.89 380.64 726.78 367.69 704.82 370.14C686.99 372.14 668.99 368.3 651.88 362.89C630.877 356.34 610.802 347.118 592.15 335.45C588.15 332.95 584.08 330.06 582.38 325.7C580.28 320.3 582.38 314.27 584.57 308.88L603.83 260.37C605.6 255.91 607.4 251.37 607.68 246.56C607.96 241.75 606.48 236.62 602.73 233.62C607.73 230.38 614.05 227.2 619.47 229.75C624.06 231.92 626.01 237.36 627.03 242.34C628.565 249.904 628.993 257.652 628.3 265.34C628.14 267.15 627.97 269.18 629.11 270.6C630.11 271.84 631.81 272.22 633.39 272.47C650.8 275.18 662.16 267.97 678.26 265.09C683.97 264.09 690.26 264.73 694.89 268.15C705.04 275.57 705.38 293.51 717.36 297.31C724.59 299.6 732.43 295.8 739.05 300.31C745.3 304.57 747.05 314.92 751.26 320.86C753.97 324.67 760.05 354.27 757.26 359.48" fill="#EC7793"/>
<path d="M656.43 350.72C655.628 350.458 654.899 350.013 654.3 349.42Z" fill="#EC7793"/>
</svg>
